<!DOCTYPE svg PUBLIC "-//W3C//DTD SVG 1.1//EN" "http://www.w3.org/Graphics/SVG/1.1/DTD/svg11.dtd">
<!-- Uploaded to: SVG Repo, www.svgrepo.com, Transformed by: SVG Repo Mixer Tools -->
<svg width="800px" height="800px" viewBox="-4.8 -4.8 57.60 57.60" id="Layer_2" data-name="Layer 2" xmlns="http://www.w3.org/2000/svg" fill="#000000" stroke="#000000" stroke-width="1.536">
<g id="SVGRepo_bgCarrier" stroke-width="0" transform="translate(0,0), scale(1)">
<rect x="-4.8" y="-4.8" width="57.60" height="57.60" rx="8.64" fill="#ffffff" strokewidth="0"/>
</g>
<g id="SVGRepo_tracerCarrier" stroke-linecap="round" stroke-linejoin="round" stroke="#CCCCCC" stroke-width="2.88">
<defs>
<style>.cls-1{fill:none;stroke:#3ba4d8;stroke-linecap:round;stroke-linejoin:round;}</style>
</defs>
<path class="cls-1" d="M10.35,4.5a2,2,0,0,0-1.95,2v35.1a2,2,0,0,0,1.95,2h27.3a2,2,0,0,0,2-2V14.49h-8a2,2,0,0,1-1.95-2v-8Z"/>
<line class="cls-1" x1="29.61" y1="4.5" x2="39.6" y2="14.49"/>
<line class="cls-1" x1="15.84" y1="22.97" x2="32.16" y2="22.97"/>
<line class="cls-1" x1="15.84" y1="35.07" x2="32.16" y2="35.07"/>
<line class="cls-1" x1="15.84" y1="29.02" x2="32.16" y2="29.02"/>
</g>
<g id="SVGRepo_iconCarrier">
<defs>
<style>.cls-1{fill:none;stroke:#3ba4d8;stroke-linecap:round;stroke-linejoin:round;}</style>
</defs>
<path class="cls-1" d="M10.35,4.5a2,2,0,0,0-1.95,2v35.1a2,2,0,0,0,1.95,2h27.3a2,2,0,0,0,2-2V14.49h-8a2,2,0,0,1-1.95-2v-8Z"/>
<line class="cls-1" x1="29.61" y1="4.5" x2="39.6" y2="14.49"/>
<line class="cls-1" x1="15.84" y1="22.97" x2="32.16" y2="22.97"/>
<line class="cls-1" x1="15.84" y1="35.07" x2="32.16" y2="35.07"/>
<line class="cls-1" x1="15.84" y1="29.02" x2="32.16" y2="29.02"/>
</g>
</svg>